<svg xmlns="http://www.w3.org/2000/svg" xmlns:xlink="http://www.w3.org/1999/xlink" width="128" zoomAndPan="magnify" viewBox="0 0 96 95.999999" height="128" preserveAspectRatio="xMidYMid meet" version="1.0"><defs><g/><clipPath id="e20f89c22c"><path d="M 0 0 L 95.996094 0 L 95.996094 96 L 0 96 Z M 0 0 " clip-rule="nonzero"/></clipPath><clipPath id="b1c3701a5a"><path d="M 16.191406 18.882812 L 80.503906 18.882812 L 80.503906 39.800781 L 16.191406 39.800781 Z M 16.191406 18.882812 " clip-rule="nonzero"/></clipPath><clipPath id="9a171ea6dd"><path d="M 26.652344 18.882812 L 70.019531 18.882812 C 75.796875 18.882812 80.480469 23.566406 80.480469 29.34375 C 80.480469 35.121094 75.796875 39.800781 70.019531 39.800781 L 26.652344 39.800781 C 20.875 39.800781 16.191406 35.121094 16.191406 29.34375 C 16.191406 23.566406 20.875 18.882812 26.652344 18.882812 Z M 26.652344 18.882812 " clip-rule="nonzero"/></clipPath><clipPath id="bff91db2fa"><path d="M 16.191406 30.179688 L 80.480469 30.179688 L 80.480469 40.0625 L 16.191406 40.0625 Z M 16.191406 30.179688 " clip-rule="nonzero"/></clipPath><clipPath id="c933fa7b97"><path d="M 16.285156 64.03125 L 80.597656 64.03125 L 80.597656 84.949219 L 16.285156 84.949219 Z M 16.285156 64.03125 " clip-rule="nonzero"/></clipPath><clipPath id="371441680d"><path d="M 26.746094 64.03125 L 70.113281 64.03125 C 75.890625 64.03125 80.574219 68.710938 80.574219 74.488281 C 80.574219 80.265625 75.890625 84.949219 70.113281 84.949219 L 26.746094 84.949219 C 20.96875 84.949219 16.285156 80.265625 16.285156 74.488281 C 16.285156 68.710938 20.96875 64.03125 26.746094 64.03125 Z M 26.746094 64.03125 " clip-rule="nonzero"/></clipPath><clipPath id="7e1fd41e62"><path d="M 16.191406 38.015625 L 80.480469 38.015625 L 80.480469 76.339844 L 16.191406 76.339844 Z M 16.191406 38.015625 " clip-rule="nonzero"/></clipPath><clipPath id="bacb1de38f"><path d="M 13.648438 17.933594 L 82.648438 17.933594 L 82.648438 86.933594 L 13.648438 86.933594 Z M 13.648438 17.933594 " clip-rule="nonzero"/></clipPath><clipPath id="37a971329f"><path d="M 24.898438 17.933594 L 71.761719 17.933594 C 74.746094 17.933594 77.609375 19.117188 79.71875 21.230469 C 81.828125 23.339844 83.011719 26.199219 83.011719 29.183594 L 83.011719 76.050781 C 83.011719 79.03125 81.828125 81.894531 79.71875 84.003906 C 77.609375 86.113281 74.746094 87.296875 71.761719 87.296875 L 24.898438 87.296875 C 21.914062 87.296875 19.050781 86.113281 16.941406 84.003906 C 14.832031 81.894531 13.648438 79.03125 13.648438 76.050781 L 13.648438 29.183594 C 13.648438 26.199219 14.832031 23.339844 16.941406 21.230469 C 19.050781 19.117188 21.914062 17.933594 24.898438 17.933594 Z M 24.898438 17.933594 " clip-rule="nonzero"/></clipPath><clipPath id="a20a16b163"><path d="M 27.898438 6.183594 L 32.261719 6.183594 L 32.261719 31.589844 L 27.898438 31.589844 Z M 27.898438 6.183594 " clip-rule="nonzero"/></clipPath><clipPath id="9485238742"><path d="M 30.078125 6.183594 C 31.285156 6.183594 32.261719 7.160156 32.261719 8.367188 L 32.261719 29.398438 C 32.261719 30.605469 31.285156 31.582031 30.078125 31.582031 C 28.875 31.582031 27.898438 30.605469 27.898438 29.398438 L 27.898438 8.367188 C 27.898438 7.160156 28.875 6.183594 30.078125 6.183594 Z M 30.078125 6.183594 " clip-rule="nonzero"/></clipPath><clipPath id="72ef0a1c66"><path d="M 64.410156 6.183594 L 68.773438 6.183594 L 68.773438 31.589844 L 64.410156 31.589844 Z M 64.410156 6.183594 " clip-rule="nonzero"/></clipPath><clipPath id="7671130709"><path d="M 66.59375 6.183594 C 67.796875 6.183594 68.773438 7.160156 68.773438 8.367188 L 68.773438 29.398438 C 68.773438 30.605469 67.796875 31.582031 66.59375 31.582031 C 65.386719 31.582031 64.410156 30.605469 64.410156 29.398438 L 64.410156 8.367188 C 64.410156 7.160156 65.386719 6.183594 66.59375 6.183594 Z M 66.59375 6.183594 " clip-rule="nonzero"/></clipPath><clipPath id="c1c08e3c2f"><path d="M 24.058594 46.753906 L 36.117188 46.753906 L 36.117188 58.488281 L 24.058594 58.488281 Z M 24.058594 46.753906 " clip-rule="nonzero"/></clipPath><clipPath id="80cd7d98b8"><path d="M 29.925781 46.753906 L 30.230469 46.753906 C 31.789062 46.753906 33.28125 47.371094 34.378906 48.472656 C 35.480469 49.570312 36.097656 51.066406 36.097656 52.621094 C 36.097656 54.175781 35.480469 55.671875 34.378906 56.769531 C 33.28125 57.871094 31.789062 58.488281 30.230469 58.488281 L 29.925781 58.488281 C 28.371094 58.488281 26.878906 57.871094 25.777344 56.769531 C 24.675781 55.671875 24.058594 54.175781 24.058594 52.621094 C 24.058594 51.066406 24.675781 49.570312 25.777344 48.472656 C 26.878906 47.371094 28.371094 46.753906 29.925781 46.753906 Z M 29.925781 46.753906 " clip-rule="nonzero"/></clipPath><clipPath id="0916c3da65"><path d="M 42.316406 46.753906 L 54.375 46.753906 L 54.375 58.488281 L 42.316406 58.488281 Z M 42.316406 46.753906 " clip-rule="nonzero"/></clipPath><clipPath id="ea5e91ee7e"><path d="M 48.183594 46.753906 L 48.488281 46.753906 C 50.042969 46.753906 51.535156 47.371094 52.636719 48.472656 C 53.738281 49.570312 54.355469 51.066406 54.355469 52.621094 C 54.355469 54.175781 53.738281 55.671875 52.636719 56.769531 C 51.535156 57.871094 50.042969 58.488281 48.488281 58.488281 L 48.183594 58.488281 C 46.628906 58.488281 45.132812 57.871094 44.035156 56.769531 C 42.933594 55.671875 42.316406 54.175781 42.316406 52.621094 C 42.316406 51.066406 42.933594 49.570312 44.035156 48.472656 C 45.132812 47.371094 46.628906 46.753906 48.183594 46.753906 Z M 48.183594 46.753906 " clip-rule="nonzero"/></clipPath><clipPath id="a2f995432c"><path d="M 60.570312 46.753906 L 72.628906 46.753906 L 72.628906 58.488281 L 60.570312 58.488281 Z M 60.570312 46.753906 " clip-rule="nonzero"/></clipPath><clipPath id="74006b62ad"><path d="M 66.441406 46.753906 L 66.742188 46.753906 C 68.300781 46.753906 69.792969 47.371094 70.894531 48.472656 C 71.992188 49.570312 72.613281 51.066406 72.613281 52.621094 C 72.613281 54.175781 71.992188 55.671875 70.894531 56.769531 C 69.792969 57.871094 68.300781 58.488281 66.742188 58.488281 L 66.441406 58.488281 C 64.882812 58.488281 63.390625 57.871094 62.289062 56.769531 C 61.191406 55.671875 60.570312 54.175781 60.570312 52.621094 C 60.570312 51.066406 61.191406 49.570312 62.289062 48.472656 C 63.390625 47.371094 64.882812 46.753906 66.441406 46.753906 Z M 66.441406 46.753906 " clip-rule="nonzero"/></clipPath><clipPath id="e4bf42bf93"><path d="M 24.058594 65.527344 L 36.117188 65.527344 L 36.117188 77.265625 L 24.058594 77.265625 Z M 24.058594 65.527344 " clip-rule="nonzero"/></clipPath><clipPath id="5a58c44dab"><path d="M 29.925781 65.527344 L 30.230469 65.527344 C 31.789062 65.527344 33.28125 66.148438 34.378906 67.246094 C 35.480469 68.347656 36.097656 69.839844 36.097656 71.398438 C 36.097656 72.953125 35.480469 74.445312 34.378906 75.546875 C 33.28125 76.648438 31.789062 77.265625 30.230469 77.265625 L 29.925781 77.265625 C 28.371094 77.265625 26.878906 76.648438 25.777344 75.546875 C 24.675781 74.445312 24.058594 72.953125 24.058594 71.398438 C 24.058594 69.839844 24.675781 68.347656 25.777344 67.246094 C 26.878906 66.148438 28.371094 65.527344 29.925781 65.527344 Z M 29.925781 65.527344 " clip-rule="nonzero"/></clipPath><clipPath id="9b55c15e17"><path d="M 42.316406 65.527344 L 54.375 65.527344 L 54.375 77.265625 L 42.316406 77.265625 Z M 42.316406 65.527344 " clip-rule="nonzero"/></clipPath><clipPath id="b81e794407"><path d="M 48.183594 65.527344 L 48.488281 65.527344 C 50.042969 65.527344 51.535156 66.148438 52.636719 67.246094 C 53.738281 68.347656 54.355469 69.839844 54.355469 71.398438 C 54.355469 72.953125 53.738281 74.445312 52.636719 75.546875 C 51.535156 76.648438 50.042969 77.265625 48.488281 77.265625 L 48.183594 77.265625 C 46.628906 77.265625 45.132812 76.648438 44.035156 75.546875 C 42.933594 74.445312 42.316406 72.953125 42.316406 71.398438 C 42.316406 69.839844 42.933594 68.347656 44.035156 67.246094 C 45.132812 66.148438 46.628906 65.527344 48.183594 65.527344 Z M 48.183594 65.527344 " clip-rule="nonzero"/></clipPath><clipPath id="ff4e0b5557"><path d="M 60.570312 65.527344 L 72.628906 65.527344 L 72.628906 77.265625 L 60.570312 77.265625 Z M 60.570312 65.527344 " clip-rule="nonzero"/></clipPath><clipPath id="14b873a19c"><path d="M 66.441406 65.527344 L 66.742188 65.527344 C 68.300781 65.527344 69.792969 66.148438 70.894531 67.246094 C 71.992188 68.347656 72.613281 69.839844 72.613281 71.398438 C 72.613281 72.953125 71.992188 74.445312 70.894531 75.546875 C 69.792969 76.648438 68.300781 77.265625 66.742188 77.265625 L 66.441406 77.265625 C 64.882812 77.265625 63.390625 76.648438 62.289062 75.546875 C 61.191406 74.445312 60.570312 72.953125 60.570312 71.398438 C 60.570312 69.839844 61.191406 68.347656 62.289062 67.246094 C 63.390625 66.148438 64.882812 65.527344 66.441406 65.527344 Z M 66.441406 65.527344 " clip-rule="nonzero"/></clipPath><clipPath id="559983bfc5"><path d="M 63.539062 63.84375 L 89.515625 63.84375 L 89.515625 89.816406 L 63.539062 89.816406 Z M 63.539062 63.84375 " clip-rule="nonzero"/></clipPath><clipPath id="33b946375a"><path d="M 76.527344 63.84375 C 69.355469 63.84375 63.539062 69.65625 63.539062 76.828125 C 63.539062 84 69.355469 89.816406 76.527344 89.816406 C 83.699219 89.816406 89.515625 84 89.515625 76.828125 C 89.515625 69.65625 83.699219 63.84375 76.527344 63.84375 Z M 76.527344 63.84375 " clip-rule="nonzero"/></clipPath><clipPath id="bcb180a4cc"><path d="M 63.539062 63.84375 L 89.507812 63.84375 L 89.507812 89.8125 L 63.539062 89.8125 Z M 63.539062 63.84375 " clip-rule="nonzero"/></clipPath><clipPath id="ec36a5e3b4"><path d="M 76.523438 63.84375 C 69.355469 63.84375 63.539062 69.65625 63.539062 76.828125 C 63.539062 83.996094 69.355469 89.8125 76.523438 89.8125 C 83.695312 89.8125 89.507812 83.996094 89.507812 76.828125 C 89.507812 69.65625 83.695312 63.84375 76.523438 63.84375 Z M 76.523438 63.84375 " clip-rule="nonzero"/></clipPath></defs><g clip-path="url(#e20f89c22c)"><path fill="#ffffff" d="M 0 0 L 95.996094 0 L 95.996094 95.996094 L 0 95.996094 Z M 0 0 " fill-opacity="1" fill-rule="nonzero"/></g><g clip-path="url(#b1c3701a5a)"><g clip-path="url(#9a171ea6dd)"><path fill="#008cff" d="M 16.191406 18.882812 L 80.503906 18.882812 L 80.503906 39.800781 L 16.191406 39.800781 Z M 16.191406 18.882812 " fill-opacity="1" fill-rule="nonzero"/></g></g><g clip-path="url(#bff91db2fa)"><path fill="#008cff" d="M 16.191406 30.179688 L 80.472656 30.179688 L 80.472656 40.0625 L 16.191406 40.0625 Z M 16.191406 30.179688 " fill-opacity="1" fill-rule="nonzero"/></g><g clip-path="url(#c933fa7b97)"><g clip-path="url(#371441680d)"><path fill="#ffffff" d="M 16.285156 64.03125 L 80.597656 64.03125 L 80.597656 84.949219 L 16.285156 84.949219 Z M 16.285156 64.03125 " fill-opacity="1" fill-rule="nonzero"/></g></g><g clip-path="url(#7e1fd41e62)"><path fill="#ffffff" d="M 16.191406 38.015625 L 80.414062 38.015625 L 80.414062 76.339844 L 16.191406 76.339844 Z M 16.191406 38.015625 " fill-opacity="1" fill-rule="nonzero"/></g><g clip-path="url(#bacb1de38f)"><g clip-path="url(#37a971329f)"><path stroke-linecap="butt" transform="matrix(0.75, 0, 0, 0.75, 13.64868, 17.934037)" fill="none" stroke-linejoin="miter" d="M 14.999678 -0.000591408 L 77.484056 -0.000591408 C 81.463223 -0.000591408 85.280932 1.577534 88.093432 4.395242 C 90.905932 7.207742 92.484057 11.020242 92.484057 14.999409 L 92.484057 77.488996 C 92.484057 81.462955 90.905932 85.280663 88.093432 88.093163 C 85.280932 90.905663 81.463223 92.483788 77.484056 92.483788 L 14.999678 92.483788 C 11.020511 92.483788 7.202803 90.905663 4.390302 88.093163 C 1.577802 85.280663 -0.000322732 81.462955 -0.000322732 77.488996 L -0.000322732 14.999409 C -0.000322732 11.020242 1.577802 7.207742 4.390302 4.395242 C 7.202803 1.577534 11.020511 -0.000591408 14.999678 -0.000591408 Z M 14.999678 -0.000591408 " stroke="#0f1131" stroke-width="8" stroke-opacity="1" stroke-miterlimit="4"/></g></g><g clip-path="url(#a20a16b163)"><g clip-path="url(#9485238742)"><path fill="#0f1131" d="M 27.898438 6.183594 L 32.261719 6.183594 L 32.261719 31.574219 L 27.898438 31.574219 Z M 27.898438 6.183594 " fill-opacity="1" fill-rule="nonzero"/></g></g><g clip-path="url(#72ef0a1c66)"><g clip-path="url(#7671130709)"><path fill="#0f1131" d="M 64.410156 6.183594 L 68.773438 6.183594 L 68.773438 31.574219 L 64.410156 31.574219 Z M 64.410156 6.183594 " fill-opacity="1" fill-rule="nonzero"/></g></g><g clip-path="url(#c1c08e3c2f)"><g clip-path="url(#80cd7d98b8)"><path fill="#008cff" d="M 24.058594 46.753906 L 36.117188 46.753906 L 36.117188 58.488281 L 24.058594 58.488281 Z M 24.058594 46.753906 " fill-opacity="1" fill-rule="nonzero"/></g></g><g clip-path="url(#0916c3da65)"><g clip-path="url(#ea5e91ee7e)"><path fill="#008cff" d="M 42.316406 46.753906 L 54.375 46.753906 L 54.375 58.488281 L 42.316406 58.488281 Z M 42.316406 46.753906 " fill-opacity="1" fill-rule="nonzero"/></g></g><g clip-path="url(#a2f995432c)"><g clip-path="url(#74006b62ad)"><path fill="#008cff" d="M 60.570312 46.753906 L 72.628906 46.753906 L 72.628906 58.488281 L 60.570312 58.488281 Z M 60.570312 46.753906 " fill-opacity="1" fill-rule="nonzero"/></g></g><g clip-path="url(#e4bf42bf93)"><g clip-path="url(#5a58c44dab)"><path fill="#008cff" d="M 24.058594 65.527344 L 36.117188 65.527344 L 36.117188 77.265625 L 24.058594 77.265625 Z M 24.058594 65.527344 " fill-opacity="1" fill-rule="nonzero"/></g></g><g clip-path="url(#9b55c15e17)"><g clip-path="url(#b81e794407)"><path fill="#008cff" d="M 42.316406 65.527344 L 54.375 65.527344 L 54.375 77.265625 L 42.316406 77.265625 Z M 42.316406 65.527344 " fill-opacity="1" fill-rule="nonzero"/></g></g><g clip-path="url(#ff4e0b5557)"><g clip-path="url(#14b873a19c)"><path fill="#008cff" d="M 60.570312 65.527344 L 72.628906 65.527344 L 72.628906 77.265625 L 60.570312 77.265625 Z M 60.570312 65.527344 " fill-opacity="1" fill-rule="nonzero"/></g></g><g clip-path="url(#559983bfc5)"><g clip-path="url(#33b946375a)"><path fill="#ffffff" d="M 63.539062 63.84375 L 89.515625 63.84375 L 89.515625 89.816406 L 63.539062 89.816406 Z M 63.539062 63.84375 " fill-opacity="1" fill-rule="nonzero"/></g></g><g clip-path="url(#bcb180a4cc)"><g clip-path="url(#ec36a5e3b4)"><path stroke-linecap="butt" transform="matrix(0.75, 0, 0, 0.75, 63.541008, 63.842483)" fill="none" stroke-linejoin="miter" d="M 17.309907 0.00168977 C 7.752615 0.00168977 -0.00259345 7.75169 -0.00259345 17.314191 C -0.00259345 26.871483 7.752615 34.626692 17.309907 34.626692 C 26.872408 34.626692 34.622408 26.871483 34.622408 17.314191 C 34.622408 7.75169 26.872408 0.00168977 17.309907 0.00168977 Z M 17.309907 0.00168977 " stroke="#9835ef" stroke-width="4" stroke-opacity="1" stroke-miterlimit="4"/></g></g><g fill="#9835ef" fill-opacity="1"><g transform="translate(71.166926, 81.856667)"><g><path d="M 4.90625 -10.03125 C 6.539062 -10.03125 7.785156 -9.609375 8.640625 -8.765625 C 9.492188 -7.921875 9.921875 -6.671875 9.921875 -5.015625 C 9.921875 -3.359375 9.492188 -2.109375 8.640625 -1.265625 C 7.785156 -0.421875 6.539062 0 4.90625 0 L 1.296875 0 L 1.296875 -10.03125 Z M 4.796875 -1.671875 C 5.828125 -1.671875 6.597656 -1.929688 7.109375 -2.453125 C 7.617188 -2.984375 7.875 -3.835938 7.875 -5.015625 C 7.875 -6.191406 7.617188 -7.039062 7.109375 -7.5625 C 6.597656 -8.09375 5.828125 -8.359375 4.796875 -8.359375 L 3.28125 -8.359375 L 3.28125 -1.671875 Z M 4.796875 -1.671875 "/></g></g></g></svg>